<?xml version="1.0" encoding="UTF-8" standalone="no"?>
<svg
   width="60.957478"
   height="61"
   viewBox="0 0 60.957478 61"
   fill="none"
   version="1.1"
   id="svg56"
   sodipodi:docname="Logo.svg"
   inkscape:version="1.3.2 (091e20e, 2023-11-25, custom)"
   xmlns:inkscape="http://www.inkscape.org/namespaces/inkscape"
   xmlns:sodipodi="http://sodipodi.sourceforge.net/DTD/sodipodi-0.dtd"
   xmlns="http://www.w3.org/2000/svg"
   xmlns:svg="http://www.w3.org/2000/svg">
  <defs
     id="defs60" />
  <sodipodi:namedview
     id="namedview58"
     pagecolor="#505050"
     bordercolor="#eeeeee"
     borderopacity="1"
     inkscape:showpageshadow="0"
     inkscape:pageopacity="0"
     inkscape:pagecheckerboard="0"
     inkscape:deskcolor="#505050"
     showgrid="false"
     inkscape:zoom="4"
     inkscape:cx="247.25"
     inkscape:cy="46.875"
     inkscape:window-width="1920"
     inkscape:window-height="1025"
     inkscape:window-x="-8"
     inkscape:window-y="-8"
     inkscape:window-maximized="1"
     inkscape:current-layer="svg56">
    <inkscape:page
       x="0"
       y="0"
       width="60.957478"
       height="61"
       id="page724"
       inkscape:export-filename="..\..\Software development\Next JS\nextjs-dashboard\public\images\logo\kobby\logo.svg"
       inkscape:export-xdpi="600"
       inkscape:export-ydpi="600"
       margin="0"
       bleed="0" />
  </sodipodi:namedview>
  <circle
     style="display:inline;opacity:1;fill:#f2f2f2;stroke-width:8.57197;stroke-dashoffset:2.43028;paint-order:stroke markers fill"
     id="path798"
     cx="30.478737"
     cy="30.5"
     r="30.5" />
  <g
     id="g742"
     transform="matrix(1.2064395,0,0,1.2064395,-14.76214,6.0825814)">
    <g
       id="g732">
      <path
         d="m 53.5492,27.8238 -9.4544,9.4061 -17.2784,-17.188 5.4983,-5.4682 3.9637,3.9442 -1.5321,1.524 9.3485,9.2997 5.4895,-5.462 z"
         fill="#e01a2c"
         id="path726" />
      <path
         d="m 19.707,13.5359 -0.3591,0.3572 -6.1194,6.0886 6.4797,6.4445 6.4785,-6.4445 z m -5.0397,6.4445 5.0397,-5.0132 5.0396,5.0132 -5.0396,5.0133 z"
         fill="#e01a2c"
         id="path728" />
      <path
         d="m 38.7656,8.35328 5.2463,-5.21754 9.409,9.35856 -3.9649,3.9441 -5.4441,-5.4155 -1.2813,1.2746 z"
         fill="#e01a2c"
         id="path730" />
    </g>
    <g
       id="g740"
       style="fill:#000000">
      <path
         d="M 21.4492,12.5181 30.9036,3.11328 48.1807,20.3 42.6838,25.7682 38.7188,21.8241 40.2521,20.3 30.9036,11.0004 25.4141,16.4623 Z"
         fill="#ffffff"
         id="path734"
         style="fill:#000000" />
      <path
         d="m 55.2922,13.9119 -6.4797,6.4445 6.4797,6.4459 0.3591,-0.3585 6.1192,-6.0874 z m 0,1.4288 5.0398,5.0132 -5.0398,5.0133 -5.0396,-5.0133 z"
         fill="#ffffff"
         id="path736"
         style="fill:#000000" />
      <path
         d="m 36.2712,32.1476 -5.245,5.2176 -9.409,-9.3585 3.9649,-3.9442 5.4441,5.4143 1.2813,-1.2734 z"
         fill="#ffffff"
         id="path738"
         style="fill:#000000" />
    </g>
  </g>
</svg>
